{"title":"Get Hard 2015 Unrated.True.1080p.BluRay 5.1 x264 . NVEE","uid":12073964,"size":2501072403,"categoryP":"video","categoryS":"hd___movies","magnet":"?xt=urn:btih:d37a1577774be6540b8c47c7f4fc102f328d9491&amp;dn=Get+Hard+2015+Unrated.True.1080p.BluRay+5.1+x264+.+NVEE&amp;tr=udp%3A%2F%2Ftracker.openbittorrent.com%3A80&amp;tr=udp%3A%2F%2Fopen.demonii.com%3A1337&amp;tr=udp%3A%2F%2Ftracker.coppersurfer.tk%3A6969&amp;tr=udp%3A%2F%2Fexodus.desync.com%3A6969","seeders":0,"leechers":1,"uploader":".NVEE","files":3,"time":1435589848,"description":"Quick note : \n\nTrackers refresh never most current &amp; so if, \nYou require a torrent release I have posted in the past, not seeding,... \nPlease do not hesitate to inform me in any means you find fit to do so. \nTorrent requests also &quot;Always Welcome.&quot; \n\n \nFULL_INFOs \n\n99.99% &gt;&gt;&gt; SYNCED GUARANTEED \n\n&quot;Totally scrutinized / analyzed to be a verified torrent.&quot; \n___________________________________________ \n\nSource : Blu-ray ~ 1080p \n\n \n\nSpoken Language : English \n\nAudio : 6 ~ Channels Only \n\n \nSubs Info : \n\nx2 ~ English .srt \nAll .srt UTF-8 .idx &amp; .ass subs can be turned On/Off \n_____________________________________ \n--------------------------------------------------------------------------------- \n \nGeneral Metadata \n\nComplete name : Get Hard 2015.Unrated.True.1080p.BluRay.5.1.x264 . NVEE.mp4 \nFormat : MPEG-4 \nFormat profile : Base Media \nCodec ID : isom \nFile size : 2.33 GiB \nDuration : 1h 46mn \nOverall bit rate : 3 124 Kbps \nEncoded date : UTC 2015-06-20 23:42:09 \nTagged date : UTC 2015-06-20 23:42:09 \n\n \nVideo \n\nID : 1 \nFormat : AVC \nFormat/Info : Advanced Video Codec \nFormat profile : &lt;a class=&quot;__cf_email__&quot; href=&quot;/cdn-cgi/l/email-protection&quot; data-cfemail=&quot;642c0d030c2428514a55&quot;&gt;[email&amp;#160;protected]&lt;/a&gt;&lt;script data-cfhash='f9e31' type=&quot;text/javascript&quot;&gt;\n/* &lt;![CDATA[ */!function(){try{var t=&quot;currentScript&quot;in document?document.currentScript:function(){for(var t=document.getElementsByTagName(&quot;script&quot;),e=t.length;e--;)if(t[e].getAttribute(&quot;data-cfhash&quot;))return t[e]}();if(t&amp;&amp;t.previousSibling){var e,r,n,i,c=t.previousSibling,a=c.getAttribute(&quot;data-cfemail&quot;);if(a){for(e=&quot;&quot;,r=parseInt(a.substr(0,2),16),n=2;a.length-n;n+=2)i=parseInt(a.substr(n,2),16)^r,e+=String.fromCharCode(i);e=document.createTextNode(e),c.parentNode.replaceChild(e,c)}t.parentNode.removeChild(t);}}catch(u){}}()/* ]]&gt; */&lt;/script&gt; \nFormat settings, CABAC : Yes \nFormat settings, ReFrames : 6 frames \nCodec ID : avc1 \nCodec ID/Info : Advanced Video Coding \nDuration : 1h 46mn \nBit rate : 2 483 Kbps \nMaximum bit rate : 11.7 Mbps \nWidth : 1 920 pixels \nHeight : 1 080 pixels \nDisplay aspect ratio : 16:9 \nFrame rate mode : Constant \nFrame rate : 23.976 fps \nColor space : YUV \nChroma subsampling : 4:2:0 \nBit depth : 8 bits \nScan type : Progressive \nBits/(Pixel*Frame) : 0.050 \nStream size : 1.85 GiB (80%) \nWriting library : x264 core 146 r2538 121396c \nEncoded from Physical Blu-ray / Region A \n\n \nAudio \n\nID : 2 \nFormat : AC-3 \nFormat/Info : Audio Coding 3 \nMode extension : CM (complete main) \nFormat settings, Endianness : Big \nCodec ID : ac-3 \nDuration : 1h 46mn \nBit rate mode : Constant \nBit rate : 640 Kbps \nMaximum bit rate : 676 Kbps \nChannel(s) : 6 channels \nChannel positions : Front: L C R, Side: L R, LFE \nSampling rate : 48.0 KHz \nBit depth : 16 bits \nCompression mode : Lossy \nStream size : 489 MiB (20%) \nEncoded date : UTC 2015-06-20 23:52:01 \nTagged date : UTC 2015-06-20 23:53:07 \nEncoded from Physical Blu-ray 6 Channel audio &quot;Always&quot;. \n\n\n \n\n \n\n \n\n\n\n\nEnj0y !","torrent":{"xt":"urn:btih:d37a1577774be6540b8c47c7f4fc102f328d9491","amp;dn":"Get+Hard+2015+Unrated.True.1080p.BluRay+5.1+x264+.+NVEE","amp;tr":["udp%3A%2F%2Ftracker.openbittorrent.com%3A80","udp%3A%2F%2Fopen.demonii.com%3A1337","udp%3A%2F%2Ftracker.coppersurfer.tk%3A6969","udp%3A%2F%2Fexodus.desync.com%3A6969"],"infoHash":"d37a1577774be6540b8c47c7f4fc102f328d9491","infoHashBuffer":{"type":"Buffer","data":[211,122,21,119,119,75,230,84,11,140,71,199,244,252,16,47,50,141,148,145]},"announce":[],"urlList":[]}}